<svg width="589" height="381" viewBox="0 0 589 381" fill="none" xmlns="http://www.w3.org/2000/svg">
<path d="M466.624 380.236L468.025 380.247L466.197 380.214C466.219 380.225 466.339 380.225 466.635 380.236H466.624ZM64.4574 315.658L64.4464 315.33L64.4574 315.658Z" fill="white"/>
<path d="M64.4574 315.669V315.779V315.669ZM40.2681 206.38L41.1984 206.413C41.1875 206.402 40.9467 206.38 40.2681 206.38ZM584.889 49.9153L585.283 50.0248L584.889 49.9153ZM583.597 50.2437H408.69C407.355 50.2437 406.074 50.7741 405.13 51.7184C404.186 52.6626 403.655 53.9432 403.655 55.2786V110.268H239.343C244.375 99.8986 246.984 88.5205 246.972 76.9942C246.972 34.8545 212.822 0.704834 170.682 0.704834C128.543 0.704834 94.3931 34.8545 94.3931 76.9942C94.3931 88.9247 97.1294 100.198 102.022 110.268H75.6874C72.8338 110.268 70.0971 111.402 68.0794 113.42C66.0616 115.437 64.9281 118.174 64.9281 121.028V147.844C64.6216 147.844 64.3808 148.085 64.3808 148.391V154.083C64.3808 154.389 64.6216 154.63 64.9281 154.63V206.818H5.71347C4.37814 206.818 3.0975 207.348 2.15327 208.292C1.20905 209.236 0.678589 210.517 0.678589 211.852V281.575C0.678589 282.91 1.20905 284.191 2.15327 285.135C3.0975 286.079 4.37814 286.609 5.71347 286.609H64.9281V368.984C64.9281 370.397 65.2063 371.797 65.7471 373.102C66.2878 374.407 67.0803 375.593 68.0794 376.592C69.0785 377.592 70.2646 378.384 71.57 378.925C72.8753 379.466 74.2744 379.744 75.6874 379.744H525.784C527.197 379.744 528.596 379.466 529.901 378.925C531.207 378.384 532.393 377.592 533.392 376.592C534.391 375.593 535.183 374.407 535.724 373.102C536.265 371.797 536.543 370.397 536.543 368.984V170.523H583.565C584.9 170.523 586.181 169.992 587.125 169.048C588.069 168.104 588.599 166.823 588.599 165.488V55.2676C588.61 52.4875 586.356 50.2327 583.565 50.2327L583.597 50.2437ZM447.612 49.7512L448.619 49.784C448.608 49.773 448.356 49.7621 447.612 49.7512ZM493.55 380.269L493.506 380.247C493.462 380.258 493.473 380.258 493.55 380.269ZM354.729 109.404L354.073 109.458L354.729 109.404ZM402.834 70.821L402.78 70.23L402.834 70.821ZM573.637 49.3681L573.254 49.4228L573.637 49.3681Z" fill="white"/>
</svg>
